<svg id="Capa_1" data-name="Capa 1" xmlns="http://www.w3.org/2000/svg" viewBox="0 0 253 87.7"><defs><style>.cls-1{fill:#e96326;}.cls-2{fill:#2f3e87;}</style></defs><path class="cls-1" d="M61.31,77.08l-2.19.43a.59.59,0,0,0-.27.14c-1,.9-8.76,7.39-21.62,4.07-14.39-3-20.08-14.56-22-17a.55.55,0,0,0-.23-.17C8.4,61.9,3.4,68.92,4.72,72.93a.47.47,0,0,0,.12.2A45.19,45.19,0,0,0,40.33,87.66C54.27,86.54,60,80.49,61.87,78A.56.56,0,0,0,61.31,77.08Z"/><path class="cls-1" d="M74.7,65.79,73,66.05a.68.68,0,0,0-.38.21c-1,1.07-7.06,6.86-20.91,4.15-15-2.93-20.77-14.63-22.54-17a.71.71,0,0,0-.15-.15c-3.95-2.88-11.55,2.41-10.46,8.16a.62.62,0,0,0,.17.33A45.55,45.55,0,0,0,52.34,76.25c14.06-.38,20.71-6.59,23-9.38A.67.67,0,0,0,74.7,65.79Z"/><path class="cls-1" d="M92,34.81a20.47,20.47,0,0,1-.87,14.07c-4,8.09-11.9,11.27-20.94,10.71-19-1.34-26-16.32-27.09-17.81L43,41.72c-5-4.12-13.61,5.33-10.43,8.59a44.86,44.86,0,0,0,39,14.12C84.3,62.69,91.12,54.36,92.55,50.31a21.8,21.8,0,0,0,0-15.69A.29.29,0,0,0,92,34.81Z"/><path class="cls-2" d="M33,10.55l1.86-.36a.65.65,0,0,0,.32-.16c1.08-1,8.82-7.35,21.6-4,14.32,3,20,14.44,22,17a.67.67,0,0,0,.28.22c6.55,2.6,11.53-4.38,10.24-8.39a.72.72,0,0,0-.14-.24A45.22,45.22,0,0,0,53.66,0C40.17,1.12,34.33,6.82,32.31,9.49A.67.67,0,0,0,33,10.55Z"/><path class="cls-2" d="M19.05,21.94l1.93-.3a.64.64,0,0,0,.34-.19c.93-1,7-6.89,20.92-4.17C57.32,20.23,63,32,64.79,34.34a.49.49,0,0,0,.13.12c4,2.91,11.58-2.4,10.47-8.17a.69.69,0,0,0-.15-.28A45.54,45.54,0,0,0,41.65,11.45c-14.39.38-21,6.88-23.15,9.57A.58.58,0,0,0,19.05,21.94Z"/><path class="cls-2" d="M23.81,28.1c19,1.34,26,16.31,27.09,17.81L51,46c5,4.11,13.61-5.33,10.44-8.6a44.94,44.94,0,0,0-39-14.11C9.69,25,2.87,33.34,1.44,37.38a21.89,21.89,0,0,0-.13,15.31.31.31,0,0,0,.59-.19,20.35,20.35,0,0,1,1-13.69C6.92,30.72,14.77,27.55,23.81,28.1Z"/><path class="cls-2" d="M120.44,32H105.11V50.34h5.62V45.73H121.9c4,0,5.17-3.14,5.17-5.88V38.28C127.07,34.69,125.78,32,120.44,32Zm.85,7.22a1.71,1.71,0,0,1-1.82,2h-8.74V36.56H119c1.7,0,2.3.71,2.3,1.95Z"/><path class="cls-2" d="M147.07,32h-17V50.34h5.62V45.58h8.84c1.75,0,2.3.63,2.3,2.55v2.21h5.62V47.22c0-3-1.39-3.75-3.06-4v-.05c2.58-.61,3.14-2,3.14-4.51V37.45C152.57,34.15,151.4,32,147.07,32Zm0,7.09c0,1.32-.56,1.93-2.08,1.93h-9.29V36.56h8.79c1.77,0,2.58.3,2.58,1.92Z"/><path class="cls-2" d="M164.5,32l-9.93,18.34h6.28l1.65-3.24h11.39l1.75,3.24h6.26L171.82,32Zm.1,11.14,3.55-6.88,3.64,6.88Z"/><polygon class="cls-2" points="208.74 32 201.47 32 195.78 38.41 190.08 32 182.81 32 191.17 41.14 182.17 50.34 189.72 50.34 195.78 43.68 201.83 50.34 209.38 50.34 200.39 41.14 208.74 32"/><rect class="cls-2" x="211.76" y="32" width="5.62" height="18.33"/><path class="cls-2" d="M233.51,38.94c-6,0-6.71,0-6.71-1.62,0-1,.86-1.42,2.13-1.42h6.23c2.58,0,2.73.56,2.73,1.9h5.62v-.58c0-3.22-.6-5.42-7.09-5.42h-7.85c-7.09,0-7.39,2.56-7.39,5.88,0,4.5,1,5.52,9.42,5.52,7.24,0,7.9.1,7.9,1.69,0,1.42-1.21,1.55-2.4,1.55h-6.89c-1.62,0-2.41-.15-2.43-2.1h-5.63V45.6c0,4,2,4.94,7.17,4.94h6.81c7.47,0,9.15-.81,9.15-5.75C244.28,39.45,242.25,38.91,233.51,38.94Z"/><path class="cls-2" d="M250.25,32.35A2.77,2.77,0,1,0,253,35.14,2.78,2.78,0,0,0,250.25,32.35Zm0,5a2.25,2.25,0,1,1,2.27-2.23A2.24,2.24,0,0,1,250.21,37.36Z"/><path class="cls-2" d="M251.51,34.47c0-.65-.4-.92-1.17-.93h-1.17l0,3.14h.53V35.33h.45l.78,1.36h.6l-.85-1.38C251.15,35.26,251.51,35.05,251.51,34.47Zm-1.82.43V34h.63c.31,0,.66.07.66.45s-.3.47-.67.47Z"/></svg>