<svg id="Layer_1" data-name="Layer 1" xmlns="http://www.w3.org/2000/svg" viewBox="0 0 79.15 73.85"><defs><style>.cls-1{fill:#eb6227;}.cls-2{fill:#2f3d88;}</style></defs><path class="cls-1" d="M51.63,64.91l-1.85.36a.57.57,0,0,0-.22.11c-.85.77-7.38,6.23-18.21,3.43C19.23,66.25,14.44,56.56,12.8,54.48a.52.52,0,0,0-.19-.14C7.07,52.12,2.86,58,4,61.41a.59.59,0,0,0,.1.17A38.13,38.13,0,0,0,34,73.82c11.74-.95,16.6-6,18.14-8.18A.47.47,0,0,0,51.63,64.91Z"/><path class="cls-1" d="M62.91,55.4l-1.4.22a.59.59,0,0,0-.33.17c-.83.9-5.94,5.78-17.61,3.5C30.9,56.82,26.09,47,24.59,44.94a.34.34,0,0,0-.12-.12c-3.32-2.43-9.73,2-8.81,6.87a.54.54,0,0,0,.14.27A38.35,38.35,0,0,0,44.08,64.2c11.83-.31,17.43-5.54,19.35-7.89A.56.56,0,0,0,62.91,55.4Z"/><path class="cls-1" d="M77.46,29.31a17.24,17.24,0,0,1-.73,11.85c-3.41,6.82-10,9.49-17.63,9-16-1.13-21.93-13.74-22.82-15l0,0c-4.19-3.47-11.47,4.49-8.79,7.24A37.78,37.78,0,0,0,60.3,54.25C71,52.79,76.73,45.77,77.93,42.37a18.35,18.35,0,0,0,0-13.22A.24.24,0,0,0,77.46,29.31Z"/><path class="cls-2" d="M27.77,8.89l1.57-.31a.57.57,0,0,0,.27-.13C30.51,7.63,37,2.25,47.79,5,59.86,7.59,64.66,17.19,66.32,19.33a.63.63,0,0,0,.24.19c5.51,2.19,9.71-3.69,8.62-7.07a.82.82,0,0,0-.12-.2A38.07,38.07,0,0,0,45.19,0c-11.36.91-16.28,5.72-18,8A.57.57,0,0,0,27.77,8.89Z"/><path class="cls-2" d="M16,18.48l1.63-.26a.48.48,0,0,0,.28-.15c.79-.86,5.89-5.81,17.62-3.52,12.69,2.48,17.5,12.35,19,14.37l.1.1c3.33,2.45,9.76-2,8.82-6.88a.55.55,0,0,0-.12-.24A38.34,38.34,0,0,0,35.07,9.64C23,10,17.37,15.44,15.58,17.7A.49.49,0,0,0,16,18.48Z"/><path class="cls-2" d="M20.05,23.67c16,1.12,21.92,13.72,22.81,15l0,.06c4.19,3.46,11.46-4.49,8.79-7.24A37.8,37.8,0,0,0,18.85,19.59C8.16,21.06,2.42,28.07,1.21,31.48A18.48,18.48,0,0,0,1.1,44.37a.26.26,0,0,0,.5-.16,17.1,17.1,0,0,1,.82-11.53C5.82,25.87,12.43,23.2,20.05,23.67Z"/></svg>